<svg width="183.35" height="46.05" viewBox="0 0 183.35 46.05" xmlns="http://www.w3.org/2000/svg"><g id="svgGroup" stroke-linecap="round" fill-rule="evenodd" font-size="9pt" stroke="#e94560" stroke-width="0.25mm" fill="#e94560" style="stroke:#e94560;stroke-width:0.25mm;fill:#e94560"><path d="M 99.9 32.75 Q 97.75 32.75 95.6 32.625 Q 93.45 32.5 91.7 32.125 A 9.077 9.077 0 0 1 90.486 31.78 Q 89.556 31.441 88.9 30.925 A 2.638 2.638 0 0 1 87.863 28.999 A 3.498 3.498 0 0 1 87.85 28.7 Q 87.85 27.6 88.475 26.7 A 8.577 8.577 0 0 1 89.025 25.997 Q 89.32 25.654 89.687 25.287 A 19.033 19.033 0 0 1 90.3 24.7 A 364.419 364.419 0 0 0 90.87 24.183 Q 91.505 23.606 92.333 22.85 A 1200.486 1200.486 0 0 0 93.125 22.125 Q 94.9 20.5 97 18.5 Q 99.1 16.5 101.125 14.525 Q 103.15 12.55 104.775 10.85 A 82.195 82.195 0 0 0 105.536 10.044 Q 106.351 9.168 106.893 8.523 A 19.559 19.559 0 0 0 107.2 8.15 A 6.531 6.531 0 0 0 107.428 7.797 Q 107.746 7.263 107.75 6.958 A 0.59 0.59 0 0 0 107.75 6.95 A 0.799 0.799 0 0 0 107.476 6.352 Q 107.227 6.117 106.75 5.95 Q 106.126 5.742 104.967 5.603 A 23.547 23.547 0 0 0 104.475 5.55 Q 102.95 5.4 100.9 5.4 A 27.908 27.908 0 0 0 99.31 5.447 A 35.386 35.386 0 0 0 97.975 5.55 A 24.223 24.223 0 0 0 95.697 5.873 A 21.539 21.539 0 0 0 94.975 6.025 Q 93.921 6.265 93.181 6.629 A 4.713 4.713 0 0 0 92.7 6.9 A 4.563 4.563 0 0 0 92.494 7.045 Q 92.285 7.202 92.169 7.335 A 0.895 0.895 0 0 0 92.1 7.425 Q 91.98 7.606 91.698 7.641 A 1.182 1.182 0 0 1 91.55 7.65 Q 90.952 7.65 90.227 6.884 A 5.98 5.98 0 0 1 89.975 6.6 A 3.753 3.753 0 0 1 89.259 5.312 A 3.542 3.542 0 0 1 89.1 4.25 A 2.803 2.803 0 0 1 89.356 3.041 Q 89.619 2.482 90.153 2.056 A 3.492 3.492 0 0 1 90.225 2 Q 91.35 1.15 93.175 0.725 Q 95 0.3 97.175 0.15 Q 99.35 0 101.45 0 Q 103.55 0 105.75 0.1 A 25.063 25.063 0 0 1 108.114 0.315 A 20.046 20.046 0 0 1 109.8 0.625 Q 111.65 1.05 112.775 2 A 3.103 3.103 0 0 1 113.854 3.99 A 4.515 4.515 0 0 1 113.9 4.65 A 5.666 5.666 0 0 1 113.54 6.589 Q 113.196 7.536 112.525 8.525 A 22.371 22.371 0 0 1 110.769 10.771 A 29.433 29.433 0 0 1 109.025 12.575 Q 106.9 14.6 104.7 16.55 Q 102.1 18.8 99.475 21.15 A 581.97 581.97 0 0 0 97.608 22.828 Q 96.138 24.156 94.95 25.25 A 1.621 1.621 0 0 0 94.733 25.451 Q 94.5 25.713 94.5 26 A 0.667 0.667 0 0 0 94.848 26.604 Q 95.075 26.741 95.45 26.8 Q 96.255 26.889 97.5 26.979 A 105.105 105.105 0 0 0 97.8 27 A 37.085 37.085 0 0 0 98.979 27.061 Q 100.038 27.1 101.35 27.1 A 44.241 44.241 0 0 0 103.195 27.064 Q 105.107 26.984 106.375 26.725 A 8.609 8.609 0 0 0 107.175 26.525 A 29.016 29.016 0 0 0 108.153 26.207 Q 109.303 25.809 109.95 25.45 Q 110.475 25.116 110.818 24.941 A 4.771 4.771 0 0 1 110.85 24.925 A 1.685 1.685 0 0 1 111.244 24.783 A 1.429 1.429 0 0 1 111.55 24.75 A 0.975 0.975 0 0 1 111.913 24.829 Q 112.234 24.959 112.63 25.301 A 6.062 6.062 0 0 1 112.95 25.6 A 2.831 2.831 0 0 1 113.721 27.072 A 4.132 4.132 0 0 1 113.8 27.9 Q 113.8 29.459 112.59 30.401 A 3.88 3.88 0 0 1 112.525 30.45 A 7.19 7.19 0 0 1 111.205 31.219 Q 110.548 31.518 109.761 31.745 A 13.612 13.612 0 0 1 109.175 31.9 A 25.785 25.785 0 0 1 106.445 32.398 A 31.392 31.392 0 0 1 104.675 32.575 Q 102.25 32.75 99.9 32.75 Z M 52.049 45.792 A 6.398 6.398 0 0 0 53.9 46.05 A 8.105 8.105 0 0 0 55.634 45.864 A 8.858 8.858 0 0 0 58.4 44.725 A 14.303 14.303 0 0 0 59.705 43.816 A 16.283 16.283 0 0 0 62.3 41.25 A 32.201 32.201 0 0 0 64.051 38.948 A 40.967 40.967 0 0 0 66.175 35.525 Q 68 32.25 69.425 28.75 A 71.288 71.288 0 0 0 70.42 26.167 A 58.82 58.82 0 0 0 71.75 22.05 A 57.231 57.231 0 0 0 72.139 20.597 Q 72.72 18.299 72.95 16.5 A 8.297 8.297 0 0 0 72.97 16.359 Q 73.179 14.741 72.7 13.375 A 2.83 2.83 0 0 0 72.549 13.021 Q 72.193 12.326 71.521 12.082 A 2.394 2.394 0 0 0 70.7 11.95 A 3.347 3.347 0 0 0 70.189 11.991 Q 69.846 12.044 69.466 12.165 A 7.24 7.24 0 0 0 68.725 12.45 A 7.883 7.883 0 0 0 68.118 12.751 A 6.522 6.522 0 0 0 66.8 13.7 Q 66.488 13.993 66.297 14.301 A 1.874 1.874 0 0 0 66 15.3 Q 66 15.8 66.3 16.175 A 32.537 32.537 0 0 0 66.366 16.257 Q 66.653 16.613 67.1 17.15 Q 67.7 17.75 67.95 18.55 A 5.262 5.262 0 0 1 68.134 19.372 A 6.877 6.877 0 0 1 68.2 20.35 Q 68.2 22.1 67.275 23.7 Q 66.35 25.3 64.9 26.3 A 6.454 6.454 0 0 1 64.443 26.588 A 5.147 5.147 0 0 1 61.85 27.3 A 1.915 1.915 0 0 1 61.38 27.247 Q 60.639 27.059 60.6 26.2 A 43.754 43.754 0 0 0 60.534 25.316 A 50.795 50.795 0 0 0 60.275 22.95 Q 60.05 21.25 59.775 19.775 A 55.153 55.153 0 0 0 59.763 19.71 Q 59.495 18.28 59.25 17.4 A 24.726 24.726 0 0 0 59.118 16.958 Q 58.827 16.016 58.489 15.2 A 14.287 14.287 0 0 0 57.7 13.575 A 2.934 2.934 0 0 0 55.919 12.154 A 4.173 4.173 0 0 0 54.75 12 A 4.68 4.68 0 0 0 54.113 12.042 A 3.301 3.301 0 0 0 52.05 13.1 A 3.713 3.713 0 0 0 51.191 14.748 A 5.275 5.275 0 0 0 51.05 16 Q 51.05 16.65 51.225 16.95 A 0.498 0.498 0 0 0 51.284 17.031 Q 51.429 17.192 51.731 17.26 A 1.981 1.981 0 0 0 52 17.3 Q 52.85 17.4 53.3 17.7 A 1.971 1.971 0 0 1 53.399 17.771 Q 53.611 17.931 53.799 18.162 A 3.393 3.393 0 0 1 54.1 18.6 A 9.23 9.23 0 0 1 54.225 18.786 Q 54.659 19.445 55.026 20.244 A 15.156 15.156 0 0 1 55.625 21.775 Q 56.25 23.65 56.675 25.65 Q 57.1 27.65 57.25 29.3 Q 57.404 30.627 57.844 31.43 A 2.515 2.515 0 0 0 58.5 32.225 Q 59.5 33 60.55 33 A 3.851 3.851 0 0 0 61.51 32.873 A 5.278 5.278 0 0 0 62.35 32.575 A 5.841 5.841 0 0 0 62.804 32.347 Q 63.188 32.133 63.596 31.839 A 11.79 11.79 0 0 0 64.4 31.2 Q 63.2 33.45 62 35.225 Q 61.175 36.445 60.516 37.276 A 15.109 15.109 0 0 1 59.95 37.95 Q 59 39.05 57.875 39.9 A 4.796 4.796 0 0 1 57.196 40.332 A 3.532 3.532 0 0 1 55.55 40.75 A 3.332 3.332 0 0 1 55.483 40.749 Q 55.163 40.743 54.892 40.675 A 1.766 1.766 0 0 1 54.125 40.275 A 4.755 4.755 0 0 1 53.901 40.059 A 5.258 5.258 0 0 1 53.2 39.15 A 1.558 1.558 0 0 0 53.091 38.991 A 1.774 1.774 0 0 0 52.8 38.7 A 0.628 0.628 0 0 0 52.7 38.635 Q 52.443 38.5 51.95 38.5 A 2.742 2.742 0 0 0 50.655 38.807 A 2.983 2.983 0 0 0 49.775 39.525 A 3.558 3.558 0 0 0 49.126 40.637 A 3.996 3.996 0 0 0 48.9 42 A 4.549 4.549 0 0 0 48.902 42.122 Q 48.926 43.031 49.316 43.754 A 3.666 3.666 0 0 0 50.375 44.95 A 5.362 5.362 0 0 0 52.049 45.792 Z M 144.4 21.75 L 144.55 21.8 A 27.646 27.646 0 0 1 146.931 16.946 A 25.813 25.813 0 0 1 146.975 16.875 A 14.419 14.419 0 0 1 148.729 14.592 A 11.896 11.896 0 0 1 150.3 13.2 Q 152.2 11.8 154.7 11.8 Q 157.35 11.8 158.75 13.4 A 5.61 5.61 0 0 1 160.097 16.493 A 7.495 7.495 0 0 1 160.15 17.4 A 7.98 7.98 0 0 1 160.004 18.945 A 7.2 7.2 0 0 1 159.925 19.3 Q 159.7 20.2 159.45 21.05 Q 159.2 21.85 159.025 22.7 Q 158.85 23.55 158.85 24.4 A 4.576 4.576 0 0 0 159.112 25.996 Q 159.691 27.562 161.55 28.25 Q 162.25 28.55 162.25 29.15 A 1.938 1.938 0 0 1 162.226 29.435 Q 162.166 29.839 161.95 30.45 A 3.5 3.5 0 0 1 161.389 31.452 A 4.704 4.704 0 0 1 160.85 32.025 Q 160.209 32.606 159.088 32.721 A 5.736 5.736 0 0 1 158.5 32.75 A 4.488 4.488 0 0 1 157.153 32.558 A 3.49 3.49 0 0 1 155.4 31.325 A 5.143 5.143 0 0 1 154.448 29.211 A 7.318 7.318 0 0 1 154.3 27.7 Q 154.3 26.45 154.575 25.175 A 49.122 49.122 0 0 1 154.929 23.65 A 40.104 40.104 0 0 1 155.15 22.8 Q 155.35 21.95 155.525 21.125 Q 155.7 20.3 155.7 19.65 Q 155.7 17.816 154.173 17.444 A 3.704 3.704 0 0 0 153.3 17.35 A 4.951 4.951 0 0 0 149.801 18.778 A 6.474 6.474 0 0 0 149.7 18.875 A 12.25 12.25 0 0 0 147.958 21.053 A 15.724 15.724 0 0 0 147.05 22.7 Q 145.95 25 145.25 27.35 L 145.25 28.55 A 5.484 5.484 0 0 1 145.081 29.946 A 4.122 4.122 0 0 1 144.225 31.6 Q 143.2 32.8 141.45 32.8 A 4.037 4.037 0 0 1 140.9 32.766 Q 139.73 32.604 139.84 31.674 A 1.573 1.573 0 0 1 139.85 31.6 Q 140.4 29.45 140.775 27.225 A 26.798 26.798 0 0 0 141.12 24.117 A 23.255 23.255 0 0 0 141.15 22.95 A 35.046 35.046 0 0 0 141.13 21.714 Q 141.069 19.994 140.825 19.075 A 6.241 6.241 0 0 0 140.624 18.445 Q 140.383 17.814 140.054 17.474 A 1.58 1.58 0 0 0 139.95 17.375 A 3.476 3.476 0 0 0 139.121 16.848 A 4.39 4.39 0 0 0 138.6 16.65 Q 138.25 16.5 137.975 16.25 A 0.817 0.817 0 0 1 137.724 15.8 A 1.219 1.219 0 0 1 137.7 15.55 A 2.133 2.133 0 0 1 137.804 14.915 Q 137.888 14.644 138.041 14.354 A 4.714 4.714 0 0 1 138.25 14 Q 138.8 13.15 139.825 12.525 A 4.297 4.297 0 0 1 141.829 11.91 A 5.205 5.205 0 0 1 142.15 11.9 A 3.815 3.815 0 0 1 143.023 11.993 Q 144.033 12.23 144.5 13.075 A 4.717 4.717 0 0 1 144.943 14.236 Q 145.072 14.762 145.121 15.378 A 9.836 9.836 0 0 1 145.15 16.15 A 14.85 14.85 0 0 1 145.091 17.431 Q 145.029 18.151 144.9 18.95 Q 144.65 20.5 144.4 21.75 Z M 42.15 18.1 L 42.1 17.15 A 11.431 11.431 0 0 1 42.091 16.723 Q 42.085 14.537 42.975 13.35 Q 43.95 12.05 45.85 12.05 A 3.88 3.88 0 0 1 46.411 12.087 Q 47.086 12.186 47.343 12.552 A 0.93 0.93 0 0 1 47.5 13.1 Q 47.5 13.45 47.375 14 A 10.161 10.161 0 0 1 47.264 14.441 Q 47.197 14.685 47.11 14.959 A 20.358 20.358 0 0 1 47 15.3 Q 46.5 17.15 46.15 19.225 Q 45.8 21.3 45.8 23.05 Q 45.8 24.569 46.164 25.678 A 5.229 5.229 0 0 0 46.4 26.275 A 2.964 2.964 0 0 0 47.784 27.671 A 4.498 4.498 0 0 0 48.65 28 Q 49.053 28.045 49.316 28.23 A 1.039 1.039 0 0 1 49.375 28.275 Q 49.65 28.5 49.65 29.2 A 3.081 3.081 0 0 1 49.298 30.607 Q 49.087 31.023 48.749 31.433 A 5.72 5.72 0 0 1 48.65 31.55 A 3.227 3.227 0 0 1 46.913 32.573 A 5.009 5.009 0 0 1 45.75 32.7 Q 42.671 32.7 42.189 29.035 A 11.439 11.439 0 0 1 42.1 27.55 Q 42.1 26.861 42.188 25.644 A 72.671 72.671 0 0 1 42.25 24.85 L 42.15 24.8 A 20.236 20.236 0 0 1 40.451 28.248 Q 39.353 29.993 38.017 31.083 A 7.864 7.864 0 0 1 32.9 32.9 Q 30.605 32.9 29.258 31.678 A 4.338 4.338 0 0 1 29.025 31.45 A 4.656 4.656 0 0 1 27.973 29.609 Q 27.65 28.582 27.65 27.25 A 15.029 15.029 0 0 1 28.013 24.015 A 17.287 17.287 0 0 1 28.2 23.25 Q 28.45 22.4 28.6 21.55 Q 28.75 20.7 28.75 19.85 A 5.502 5.502 0 0 0 28.666 18.85 Q 28.568 18.32 28.354 17.922 A 2.093 2.093 0 0 0 27.4 17 Q 26.1 16.3 26.1 15.5 Q 26.1 14.7 26.775 13.9 Q 27.45 13.1 28.45 12.575 A 4.704 4.704 0 0 1 29.513 12.165 A 3.91 3.91 0 0 1 30.45 12.05 A 2.369 2.369 0 0 1 32.715 13.441 Q 33.3 14.593 33.3 16.7 A 17.627 17.627 0 0 1 33.229 18.316 A 14.128 14.128 0 0 1 33.075 19.475 A 31.864 31.864 0 0 1 32.695 21.317 A 28.018 28.018 0 0 1 32.55 21.9 Q 32.35 22.7 32.225 23.5 Q 32.123 24.152 32.104 24.67 A 6.313 6.313 0 0 0 32.1 24.9 A 3.689 3.689 0 0 0 32.217 25.874 Q 32.523 26.989 33.627 27.289 A 3.52 3.52 0 0 0 34.55 27.4 A 4.521 4.521 0 0 0 37.026 26.636 Q 37.967 26.031 38.85 24.95 A 13.969 13.969 0 0 0 40.346 22.663 Q 41.373 20.73 42.15 18.1 Z M 6.465 32.696 A 13.727 13.727 0 0 0 8.6 32.85 A 18.062 18.062 0 0 0 9.54 32.826 A 15.261 15.261 0 0 0 15.55 31.3 A 15.153 15.153 0 0 0 16.172 30.986 A 12.645 12.645 0 0 0 20.7 27 Q 22.6 24.25 22.6 20.9 A 10.492 10.492 0 0 0 22.496 19.388 Q 21.794 14.571 16.35 13.7 A 10.686 10.686 0 0 0 16.541 13.536 A 9.298 9.298 0 0 0 18.75 10.7 Q 19.6 9 19.6 7 Q 19.6 3.9 17.45 2 A 6.502 6.502 0 0 0 15.824 0.958 Q 13.938 0.1 11.15 0.1 A 19.101 19.101 0 0 0 9.895 0.141 A 16.348 16.348 0 0 0 6.375 0.75 Q 5.106 1.121 4.089 1.573 A 11.462 11.462 0 0 0 2.7 2.3 Q 1.25 3.15 0.625 4.125 A 3.82 3.82 0 0 0 0.116 5.375 A 5.215 5.215 0 0 0 0 6.5 Q 0 7.505 0.25 7.949 A 0.608 0.608 0 0 0 0.8 8.3 Q 1.106 8.3 1.676 8.007 A 7.557 7.557 0 0 0 2.05 7.8 Q 2.153 8.934 2.185 10.541 A 77.964 77.964 0 0 1 2.2 12.1 A 46.713 46.713 0 0 1 2.15 14.306 A 36.056 36.056 0 0 1 2 16.325 A 54.899 54.899 0 0 1 1.94 16.877 Q 1.844 17.72 1.712 18.657 A 94.09 94.09 0 0 1 1.4 20.7 A 195.47 195.47 0 0 0 1.254 21.714 Q 1.185 22.196 1.127 22.63 A 98.58 98.58 0 0 0 1 23.6 A 23.986 23.986 0 0 0 0.921 24.316 Q 0.889 24.657 0.871 24.963 A 12.045 12.045 0 0 0 0.85 25.65 A 9.746 9.746 0 0 0 1.049 27.668 A 6.725 6.725 0 0 0 2.65 30.875 Q 3.947 32.298 6.465 32.696 Z M 170.886 32.643 A 10.683 10.683 0 0 0 173.3 32.9 Q 177.9 32.9 181.25 29.7 A 16.96 16.96 0 0 0 181.278 29.674 Q 182.605 28.411 182.991 27.494 A 1.8 1.8 0 0 0 183.15 26.8 A 1.466 1.466 0 0 0 183.147 26.708 A 1.098 1.098 0 0 0 182.825 25.975 A 1.071 1.071 0 0 0 182.411 25.714 A 1.259 1.259 0 0 0 182 25.65 A 1.39 1.39 0 0 0 181.538 25.734 Q 181.139 25.874 180.7 26.25 Q 179.6 27.15 178.075 27.675 A 10.439 10.439 0 0 1 177.317 27.905 A 8.745 8.745 0 0 1 175.1 28.2 A 7.225 7.225 0 0 1 173.955 28.113 A 5.237 5.237 0 0 1 171.175 26.8 A 4.663 4.663 0 0 1 169.894 24.85 A 5.758 5.758 0 0 1 169.6 23.1 A 6.345 6.345 0 0 0 170.14 23.444 Q 171.141 24.013 172.405 24.26 A 10.915 10.915 0 0 0 174.5 24.45 A 11.717 11.717 0 0 0 175.403 24.416 A 9.727 9.727 0 0 0 178.95 23.475 A 9.908 9.908 0 0 0 179.556 23.154 A 8.253 8.253 0 0 0 182.15 20.85 Q 183.35 19.2 183.35 17.25 A 6.315 6.315 0 0 0 183.334 16.798 A 4.747 4.747 0 0 0 181.55 13.325 A 5.735 5.735 0 0 0 180.943 12.89 Q 179.27 11.85 176.75 11.85 Q 173.6 11.85 170.975 13.575 Q 168.35 15.3 166.8 18.2 A 12.779 12.779 0 0 0 165.918 20.271 A 14.059 14.059 0 0 0 165.25 24.65 A 13.839 13.839 0 0 0 165.256 25.045 Q 165.358 28.632 167.342 30.691 A 6.772 6.772 0 0 0 167.375 30.725 A 6.713 6.713 0 0 0 167.738 31.07 Q 169.036 32.214 170.886 32.643 Z M 10.6 27.3 A 14.023 14.023 0 0 0 12.871 27.124 A 11.11 11.11 0 0 0 14.675 26.675 Q 16.5 26.05 17.6 24.85 Q 18.7 23.65 18.7 22.05 A 4.511 4.511 0 0 0 18.572 20.939 A 2.778 2.778 0 0 0 17.25 19.15 Q 15.8 18.3 13.9 18.3 Q 13.356 18.3 12.628 18.369 A 24.862 24.862 0 0 0 11.9 18.45 Q 11.4 18.55 10.75 18.55 A 2.214 2.214 0 0 1 9.076 17.824 A 2.938 2.938 0 0 1 8.925 17.65 A 3.234 3.234 0 0 1 8.257 16.124 A 4.4 4.4 0 0 1 8.2 15.4 A 1.599 1.599 0 0 1 8.262 14.939 Q 8.415 14.428 8.951 14.232 A 1.619 1.619 0 0 1 9.05 14.2 Q 11.851 13.465 13.366 12.235 A 4.448 4.448 0 0 0 15.15 8.65 A 3.186 3.186 0 0 0 14.825 7.163 Q 13.961 5.5 10.8 5.5 A 11.974 11.974 0 0 0 9.524 5.574 Q 8.856 5.646 8.094 5.788 A 27.48 27.48 0 0 0 6.85 6.05 Q 6.85 8.5 6.6 11.175 Q 6.35 13.85 5.85 16.75 A 220.325 220.325 0 0 0 5.643 18.162 Q 5.484 19.266 5.375 20.125 Q 5.208 21.437 5.2 22.271 A 8.61 8.61 0 0 0 5.2 22.35 A 8.486 8.486 0 0 0 5.301 23.709 Q 5.569 25.358 6.55 26.175 Q 7.9 27.3 10.6 27.3 Z M 123.75 32.9 Q 120.3 32.9 118.225 31.025 A 5.977 5.977 0 0 1 116.493 28.173 Q 116.214 27.206 116.162 26.046 A 12.15 12.15 0 0 1 116.15 25.5 Q 116.15 23.8 116.625 22.2 Q 117.1 20.6 117.9 19.2 Q 117.1 19.7 116.7 19.7 Q 116.243 19.7 116.003 19.308 A 1.377 1.377 0 0 1 115.875 19.025 A 4.35 4.35 0 0 1 115.67 18.088 A 3.838 3.838 0 0 1 115.65 17.7 A 4.517 4.517 0 0 1 115.705 16.973 Q 115.768 16.586 115.904 16.271 A 2.218 2.218 0 0 1 116.125 15.875 Q 116.478 15.374 116.817 15.051 A 3.127 3.127 0 0 1 117.05 14.85 Q 117.998 14.037 119.925 13.082 A 32.314 32.314 0 0 1 120.35 12.875 Q 122.5 11.848 125.473 11.802 A 18.114 18.114 0 0 1 125.75 11.8 Q 129.34 11.8 131.589 13.473 A 7.342 7.342 0 0 1 132.425 14.2 A 7.873 7.873 0 0 1 134.438 17.831 Q 134.8 19.22 134.8 20.9 Q 134.8 24.25 133.4 26.975 Q 132 29.7 129.525 31.3 A 9.98 9.98 0 0 1 125.154 32.823 A 12.59 12.59 0 0 1 123.75 32.9 Z M 125.3 27.8 A 6.568 6.568 0 0 0 127.573 27.418 A 5.861 5.861 0 0 0 129.525 26.225 A 5.214 5.214 0 0 0 131.216 22.761 A 7.232 7.232 0 0 0 131.25 22.05 A 6.515 6.515 0 0 0 131.1 20.601 Q 130.888 19.671 130.375 19.006 A 3.574 3.574 0 0 0 129.5 18.2 Q 127.75 17.05 125.45 17.05 Q 124.4 17.05 123.55 17.25 A 11.475 11.475 0 0 0 122.235 17.641 A 10.239 10.239 0 0 0 121.95 17.75 A 12.462 12.462 0 0 0 121.059 19.243 A 14.804 14.804 0 0 0 120.7 20 A 6.564 6.564 0 0 0 120.169 22.196 A 7.821 7.821 0 0 0 120.15 22.75 A 6.622 6.622 0 0 0 120.308 24.242 Q 120.547 25.275 121.147 26.012 A 3.928 3.928 0 0 0 121.65 26.525 Q 123.15 27.8 125.3 27.8 Z M 174.05 21.15 A 7.149 7.149 0 0 0 175.365 21.036 Q 176.319 20.857 177.05 20.4 A 3.217 3.217 0 0 0 177.657 19.919 A 1.975 1.975 0 0 0 178.25 18.5 A 1.791 1.791 0 0 0 178.108 17.774 Q 177.937 17.384 177.562 17.103 A 2.197 2.197 0 0 0 177.45 17.025 A 2.858 2.858 0 0 0 176.668 16.675 Q 176.059 16.5 175.25 16.5 A 5.909 5.909 0 0 0 173.425 16.773 A 5.132 5.132 0 0 0 172.025 17.475 A 5.235 5.235 0 0 0 170.234 19.723 A 6.594 6.594 0 0 0 170.05 20.2 A 4.353 4.353 0 0 0 170.739 20.555 Q 171.231 20.759 171.85 20.9 Q 172.95 21.15 174.05 21.15 Z" vector-effect="non-scaling-stroke"/></g></svg>